<?xml version="1.0" encoding="utf-8"?>
<!-- Generator: Adobe Illustrator 28.3.0, SVG Export Plug-In . SVG Version: 6.00 Build 0)  -->
<svg version="1.1" id="Layer_1" xmlns="http://www.w3.org/2000/svg" xmlns:xlink="http://www.w3.org/1999/xlink" x="0px" y="0px"
	 viewBox="0 0 573 190.9" style="enable-background:new 0 0 573 190.9;" xml:space="preserve">
<style type="text/css">
	.st0{fill:#0B4269;}
	.st1{fill:#BAD655;}
</style>
<g>
	<path class="st0" d="M27,100.8H9.4c-0.9,0-1.4-0.5-1.4-1.4V7.9C8,7,8.5,6.5,9.4,6.5H46c10.2,0,18.2,2.8,24.1,8.3
		c5.9,5.5,8.8,12.9,8.8,22.1c0,9-3,16.3-8.9,21.8c-5.9,5.6-13.9,8.4-24,8.4H29.2c-0.6,0-0.8,0.3-0.8,0.8v31.5
		C28.4,100.4,27.9,100.8,27,100.8z M44.8,49.5c4.3,0,7.6-1.1,10.1-3.4c2.4-2.3,3.7-5.3,3.7-9.2s-1.2-7-3.7-9.3
		c-2.4-2.3-5.8-3.5-10.1-3.5H29.2c-0.6,0-0.8,0.3-0.8,0.8v23.7c0,0.6,0.3,0.8,0.8,0.8H44.8z"/>
	<path class="st0" d="M109.7,100.8H93c-0.9,0-1.4-0.5-1.4-1.4V35.1c0-0.9,0.5-1.4,1.4-1.4h16.6c0.9,0,1.4,0.5,1.4,1.4v5.7h0.1
		c3.4-5.7,9.2-8.6,17.5-8.6c4.7,0,8.6,1.3,11.8,4c0.6,0.6,0.8,1.2,0.4,1.9l-7.8,14.1c-0.5,0.6-1.1,0.6-1.9,0.3
		c-3.3-2.1-6.6-3.1-9.7-3.1c-6.9,0.3-10.4,5.1-10.4,14.6v35.4C111.1,100.4,110.6,100.8,109.7,100.8z"/>
	<path class="st0" d="M194.8,97.4c-5.1,3.3-11.3,4.9-18.5,4.9s-13.4-1.6-18.5-4.9c-5.1-3.3-8.7-7.9-10.6-13.9
		c-1.5-4.7-2.2-10.1-2.2-16.2c0-6.1,0.7-11.5,2.2-16.2c1.9-6,5.5-10.7,10.6-13.9c5.1-3.3,11.3-4.9,18.5-4.9s13.4,1.6,18.5,4.9
		c5.1,3.3,8.7,7.9,10.6,13.9c1.5,4.7,2.2,10.1,2.2,16.2c0,6.1-0.7,11.5-2.2,16.2C203.4,89.5,199.9,94.2,194.8,97.4z M176.2,86
		c5.4,0,8.8-2.4,10.4-7.2c0.8-2.6,1.2-6.4,1.2-11.5c0-5.1-0.4-8.9-1.2-11.5c-1.6-4.8-5-7.2-10.4-7.2c-5.4,0-8.8,2.4-10.4,7.2
		c-0.8,2.6-1.2,6.4-1.2,11.5c0,5.1,0.4,8.9,1.2,11.5C167.4,83.6,170.9,86,176.2,86z"/>
	<path class="st0" d="M222,99.5V7.9c0-0.9,0.5-1.4,1.4-1.4H241c0.9,0,1.4,0.5,1.4,1.4v35.4c0,0.6,0.3,0.8,0.8,0.8H274
		c0.6,0,0.8-0.3,0.8-0.8V7.9c0-0.9,0.5-1.4,1.4-1.4h17.6c0.9,0,1.4,0.5,1.4,1.4v91.5c0,0.9-0.5,1.4-1.4,1.4h-17.6
		c-0.9,0-1.4-0.5-1.4-1.4V63.1c0-0.6-0.3-0.8-0.8-0.8h-30.8c-0.6,0-0.8,0.3-0.8,0.8v36.3c0,0.9-0.5,1.4-1.4,1.4h-17.6
		C222.5,100.8,222,100.4,222,99.5z"/>
	<path class="st0" d="M306.2,99.5l32.5-91.5c0.3-0.9,0.9-1.4,1.8-1.4h17.5c0.9,0,1.5,0.5,1.8,1.4l31.9,91.5c0.3,0.9-0.1,1.4-1,1.4
		h-18c-0.9,0-1.5-0.5-1.8-1.4l-5.4-16.5h-33l-5.3,16.5c-0.3,0.9-0.9,1.4-1.8,1.4h-18.2C306.2,100.8,305.9,100.4,306.2,99.5z
		 M338.1,65.6h21.8l-10.7-33h-0.4L338.1,65.6z"/>
	<path class="st0" d="M402.6,99.5V7.9c0-0.9,0.5-1.4,1.4-1.4h16.6c1,0,1.8,0.5,2.4,1.4l33.3,59.4h0.7V7.9c0-0.9,0.5-1.4,1.4-1.4H474
		c0.9,0,1.4,0.5,1.4,1.4v91.5c0,0.9-0.5,1.4-1.4,1.4h-16.5c-1,0-1.8-0.5-2.4-1.4l-33.4-59.2H421v59.2c0,0.9-0.5,1.4-1.4,1.4H404
		C403.1,100.8,402.6,100.4,402.6,99.5z"/>
	<path class="st0" d="M493.6,79.5c-1.8-5.5-2.6-14.1-2.6-25.8c0-11.6,0.9-20.2,2.6-25.8c2.4-7.5,6.6-13.2,12.7-17.1
		c6.1-3.9,13.4-5.8,22-5.8c8.4,0,15.5,1.9,21.4,5.5c5.8,3.7,9.9,8.6,12.2,14.6c0.5,0.9,0.3,1.6-0.6,2.1l-14.8,6.2
		c-1,0.3-1.7,0-1.9-0.7c-3.8-6.5-9.2-9.7-16.2-9.7c-7.9,0-12.9,3.5-15.1,10.5c-1,3.1-1.5,9.8-1.5,20.1c0,10.5,0.5,17.2,1.5,20.3
		c2.2,6.9,7.4,10.4,15.4,10.4c3.6,0,6.8-0.9,9.6-2.6c2.8-1.7,4.6-4.1,5.5-7.1c0.7-2.5,1.1-5.6,1.1-9.3c0-0.6-0.3-0.8-0.8-0.8h-12.8
		c-0.9,0-1.4-0.5-1.4-1.4V49.8c0-0.9,0.5-1.4,1.4-1.4h32.5c0.9,0,1.4,0.5,1.4,1.4v7.8c0,9.3-0.8,16.4-2.4,21.2
		c-2.3,7.5-6.5,13.3-12.6,17.4c-6.1,4.1-13.4,6.2-21.8,6.2c-8.6,0-15.9-1.9-22-5.8C500.2,92.7,496,87,493.6,79.5z"/>
</g>
<g>
	<g>
		<path class="st1" d="M86.1,128.1c2.2,0.6,4.3,1.2,6.5,1.8c-0.4,8.2-0.8,16.5-1.1,24.8c4-6.9,7.9-13.9,11.7-20.8
			c1.8,0.5,3.6,1,5.5,1.4c0,8,0,15.9,0.1,23.9c3.7-7.4,7.4-14.8,11-22.2c2.1,0.5,4.2,1,6.3,1.5c-5.1,9.4-10.3,18.8-15.6,28.2
			c-2.1-0.5-4.2-1-6.3-1.5c-0.1-8.2-0.1-16.4,0-24.5c-3.9,7.2-7.8,14.3-11.9,21.4c-2.1-0.6-4.1-1.1-6.1-1.7
			C86.1,149.6,86,138.8,86.1,128.1z"/>
		<path class="st1" d="M140.8,142.7c2.1,0.4,4.3,0.9,6.4,1.3c1.7,10.5,3.6,21.1,5.6,31.6c-2.1-0.4-4.3-0.8-6.4-1.2
			c-0.4-2.5-0.9-4.9-1.3-7.4c-3.9-0.8-7.8-1.6-11.7-2.4c-1.3,2.1-2.7,4.2-4,6.3c-2.1-0.4-4.1-0.9-6.2-1.4
			C129.3,160.7,135.1,151.7,140.8,142.7z M145,161.9c-0.7-4.6-1.4-9.2-2.1-13.7c-2.4,4-4.8,7.9-7.2,11.9
			C138.8,160.7,141.9,161.3,145,161.9z"/>
		<path class="st1" d="M184.4,178.8c-2.3,1.4-5.6,1.8-9.7,1.2c-4-0.6-7-1.9-9.1-3.8c-2.1-2-3-4.6-2.7-8c1.9,0.3,3.9,0.7,5.8,1
			c0,1.8,0.5,3.3,1.6,4.3c1.1,1,2.8,1.7,5.2,2.1c2.3,0.3,4,0.1,5-0.6c1-0.7,1.6-1.7,1.8-3c0.1-1-0.1-1.9-0.6-2.7
			c-0.5-0.8-1.7-1.6-3.6-2.2c-1.3-0.4-2.6-0.9-3.9-1.3c-3.1-1.1-5.4-2.4-6.9-4c-1.5-1.6-1.9-3.7-1.5-6.4c0.3-1.9,1.1-3.5,2.3-4.6
			c1.2-1.1,2.8-1.9,4.6-2.2c1.9-0.4,4-0.4,6.3,0c2.6,0.4,4.7,1.1,6.3,2.1c1.5,1,2.6,2.1,3.3,3.5c0.7,1.4,1,2.8,1.1,4.4
			c-1.9,0-3.7,0-5.6,0c-0.2-1.6-0.7-2.8-1.5-3.7c-0.8-0.9-2.2-1.5-4.3-1.8c-2.3-0.3-3.9-0.2-4.9,0.4c-1,0.6-1.6,1.5-1.8,2.6
			c-0.2,1.2,0,2.1,0.6,2.9c0.6,0.7,1.8,1.4,3.6,2c1.4,0.5,2.8,1,4.2,1.4c3.3,1.1,5.6,2.5,6.9,4.1c1.4,1.6,1.9,3.7,1.5,6.3
			C188,175.3,186.7,177.4,184.4,178.8z"/>
		<path class="st1" d="M202.5,152.7c1.7,0.2,3.4,0.4,5,0.6c-0.4,4-0.9,8-1.3,11.9c4.4,0.5,8.9,0.9,13.3,1.3c0.4-4,0.7-8,1.1-11.9
			c2,0.2,4,0.4,6.1,0.5c-0.8,10-1.7,19.9-2.5,29.9c-2.1-0.2-4.2-0.4-6.3-0.6c0.4-4.3,0.8-8.6,1.2-12.9c-4.5-0.4-8.9-0.9-13.4-1.4
			c-0.5,4.3-1,8.6-1.4,12.9c-1.7-0.2-3.5-0.4-5.2-0.6C200.2,172.5,201.3,162.6,202.5,152.7z"/>
		<path class="st1" d="M238.8,156c2,0.1,4,0.3,6.1,0.4c-0.6,10-1.2,20-1.7,30c-2.1-0.1-4.2-0.3-6.3-0.4
			C237.5,176,238.1,166,238.8,156z"/>
		<path class="st1" d="M258,157c1.8,0.1,3.5,0.1,5.3,0.2c4.1,7.2,8.3,14.4,12.6,21.5c0.1-7.1,0.2-14.1,0.3-21.2c1.7,0,3.4,0,5.1,0.1
			c-0.1,10-0.1,20-0.2,30c-1.8,0-3.7,0-5.5-0.1c-4.4-7.1-8.6-14.2-12.8-21.4c-0.2,7-0.5,14.1-0.7,21.1c-1.8-0.1-3.5-0.1-5.3-0.2
			C257.2,177,257.6,167,258,157z"/>
		<path class="st1" d="M322,183.6c-1.5,1.4-3.3,2.6-5.4,3.4c-2.1,0.8-4.3,1.2-6.5,1.3c-4.6,0.1-8.2-1.2-10.8-3.9
			c-2.5-2.8-3.8-6.6-3.9-11.6c0-3.2,0.5-6,1.5-8.4c1-2.4,2.5-4.3,4.5-5.7c2-1.4,4.4-2.1,7.3-2.2c3.4-0.1,6,0.6,8,2.2
			c1.9,1.6,3.3,3.8,3.9,6.5c-1.8,0.3-3.6,0.6-5.3,0.9c-0.4-1.5-1.1-2.8-2.1-3.6c-1-0.9-2.4-1.3-4.4-1.2c-1.8,0.1-3.3,0.6-4.5,1.6
			c-1.1,1-2,2.3-2.5,4c-0.5,1.7-0.7,3.6-0.7,5.7c0.1,3.5,0.8,6.2,2.3,8.2c1.4,1.9,3.7,2.9,6.7,2.8c1.3,0,2.4-0.2,3.5-0.5
			c1.1-0.3,2.1-0.8,3-1.4c-0.1-1.8-0.1-3.6-0.2-5.5c-2.4,0.1-4.8,0.2-7.3,0.3c-0.1-1.7-0.1-3.3-0.2-5c4.1-0.1,8.2-0.3,12.4-0.5
			C321.6,175,321.8,179.3,322,183.6z"/>
		<path class="st1" d="M347,155c2-0.2,4-0.4,6.1-0.5c0.8,8.3,1.5,16.6,2.3,24.9c5.2-0.5,10.3-1,15.5-1.6c0,1.7-0.1,3.4-0.1,5
			c-7.1,0.8-14.1,1.5-21.2,2.1C348.6,174.9,347.8,165,347,155z"/>
		<path class="st1" d="M378.2,151.7c2-0.3,4-0.5,6-0.8c1.4,9.9,2.7,19.8,4.1,29.7c-2.1,0.3-4.2,0.6-6.3,0.8
			C380.7,171.5,379.5,161.6,378.2,151.7z"/>
		<path class="st1" d="M396.3,149.1c2.1-0.3,4.2-0.7,6.2-1c5.4,6.3,10.9,12.5,16.6,18.7c-1.3-7-2.5-13.9-3.8-20.9
			c1.7-0.3,3.3-0.6,5-0.9c1.9,9.8,3.7,19.6,5.6,29.5c-2.2,0.4-4.3,0.8-6.5,1.2c-5.7-6.1-11.2-12.3-16.7-18.5
			c1.1,6.9,2.2,13.9,3.4,20.8c-1.7,0.3-3.5,0.6-5.2,0.8C399.3,168.9,397.8,159,396.3,149.1z"/>
		<path class="st1" d="M432,141.6c7-1.4,13.9-3,20.8-4.6c0.4,1.6,0.8,3.2,1.2,4.9c-5,1.2-10,2.3-15,3.4c0.6,2.6,1.1,5.2,1.7,7.8
			c4.7-1,9.4-2.1,14.1-3.2c0.4,1.6,0.8,3.2,1.2,4.9c-4.7,1.1-9.5,2.2-14.2,3.2c0.6,2.6,1.1,5.2,1.7,7.8c5.8-1.3,11.6-2.6,17.3-4
			c0.1,1.7,0.3,3.4,0.4,5c-7.6,1.8-15.2,3.5-22.9,5.1C436.2,161.9,434.1,151.7,432,141.6z"/>
		<path class="st1" d="M491.6,157.1c-1.6,2.2-4.4,3.9-8.4,5c-3.9,1.1-7.2,1.1-9.9,0.2c-2.7-0.9-4.6-3-5.7-6.2c1.9-0.5,3.8-1,5.8-1.5
			c0.7,1.7,1.8,2.8,3.2,3.3c1.4,0.5,3.3,0.4,5.6-0.2c2.3-0.6,3.7-1.5,4.4-2.6c0.6-1.1,0.8-2.2,0.4-3.5c-0.3-1-0.8-1.7-1.6-2.3
			c-0.8-0.6-2.2-0.7-4.2-0.5c-1.4,0.1-2.8,0.3-4.1,0.4c-3.3,0.3-6,0-7.9-0.8c-2-0.9-3.3-2.6-4-5.3c-0.5-1.9-0.4-3.6,0.3-5.1
			c0.7-1.5,1.8-2.8,3.4-3.9c1.6-1.1,3.5-2,5.7-2.6c2.6-0.7,4.8-0.9,6.6-0.7c1.8,0.3,3.3,0.9,4.5,1.9c1.2,1,2.1,2.2,2.8,3.6
			c-1.7,0.8-3.4,1.5-5.2,2.3c-0.8-1.4-1.8-2.3-2.9-2.8c-1.1-0.5-2.7-0.4-4.7,0.1c-2.2,0.6-3.7,1.4-4.4,2.4c-0.7,1-0.9,2-0.6,3.2
			c0.3,1.2,0.9,1.9,1.7,2.4c0.8,0.4,2.2,0.6,4.1,0.4c1.5-0.1,3-0.2,4.4-0.4c3.5-0.3,6.1,0,8,0.9c1.9,0.9,3.2,2.7,4,5.2
			C493.5,152.4,493.1,154.8,491.6,157.1z"/>
	</g>
</g>
</svg>
